<svg width="99" height="29" xmlns="http://www.w3.org/2000/svg"><g fill="none" fill-rule="evenodd"><g stroke="#666666"><path d="M11.39 27.977a1.493 1.493 0 0 0 1.762 0l10.27-7.509a1.49 1.49 0 0 0 .612-1.205v-5.175a1.493 1.493 0 0 0-2.373-1.205l-7.918 5.79c-.877.64-2.067.64-2.943 0l-7.918-5.79a1.493 1.493 0 0 0-2.373 1.205v5.175c0 .476.227.924.611 1.205l10.27 7.51z"/><path d="M.5 18.315l10.292-7.525a2.493 2.493 0 0 1 2.942 0l10.292 7.525v-8.116c0-.476-.228-.923-.612-1.204l-10.27-7.51a1.493 1.493 0 0 0-1.762 0l-10.27 7.51A1.493 1.493 0 0 0 .5 10.199v8.116z"/></g><text font-family="PingFangSC-Medium, PingFang SC" font-size="16" font-weight="400" fill="#666666"><tspan x="35" y="20">创意中心</tspan></text></g></svg>
