<svg xmlns="http://www.w3.org/2000/svg" xmlns:xlink="http://www.w3.org/1999/xlink" viewBox="0 0 145 30" id="icon-vi-tiktok2" width="100%" height="100%">
  <desc>Created with Sketch.</desc>

  <g id="icon-vi-tiktok2_Page-1" stroke="none" stroke-width="1" fill="none" fill-rule="evenodd">
    <g id="icon-vi-tiktok2_登录页-copy" transform="translate(-1127.000000, -4178.000000)">
      <g id="icon-vi-tiktok2_Group-15" transform="translate(0.000000, 4144.000000)">
        <g id="icon-vi-tiktok2_Group" transform="translate(1127.000000, 34.000000)">
          <g id="icon-vi-tiktok2_Group-62-Copy-6">
            <g id="icon-vi-tiktok2_Group-3" transform="translate(0.000000, 10.449407)">

              <g id="icon-vi-tiktok2_Clip-2"></g>
              <path d="M10.0590248,1.42744068 L10.0590248,0.275491525 C9.66771219,0.221847458 9.27010437,0.188033898 8.86443862,0.188033898 C3.97655671,0.188033898 -2.51809897e-05,4.20320339 -2.51809897e-05,9.13820339 C-2.51809897e-05,12.1661695 1.49824371,14.8458305 3.78442576,16.4660847 C2.30907157,14.8669322 1.40381499,12.7247288 1.40381499,10.3722712 C1.40381499,5.50794915 5.26758605,1.54032203 10.0590248,1.42744068" id="icon-vi-tiktok2_Fill-1" fill="#00F2EA" mask="url(#icon-vi-tiktok2_mask-2)"></path>
            </g>
            <g id="icon-vi-tiktok2_Group-6" transform="translate(6.798867, 0.025678)">

              <g id="icon-vi-tiktok2_Clip-5"></g>
              <path d="M3.46943676,24.883322 C5.65011047,24.883322 7.42914739,23.1318814 7.50997837,20.9495085 L7.51778447,1.46222034 L11.0438785,1.46222034 C10.97035,1.06205085 10.9300604,0.650186441 10.9300604,0.22840678 L6.1139443,0.22840678 L6.10613819,19.7156949 C6.02530721,21.8978136 4.24627029,23.6492542 2.06559658,23.6492542 C1.38772434,23.6492542 0.749638063,23.4784068 0.187598373,23.179678 C0.923638702,24.209339 2.11872847,24.883322 3.46943676,24.883322" id="icon-vi-tiktok2_Fill-4" fill="#00F2EA" mask="url(#icon-vi-tiktok2_mask-4)"></path>
            </g>
            <path d="M24.4292868,8.10228814 L24.4292868,7.01898305 C23.0841183,7.01898305 21.8311123,6.61525424 20.7805614,5.92347458 C21.7160352,7.00855932 22.9866679,7.79059322 24.4292868,8.10228814" id="icon-vi-tiktok2_Fill-7" fill="#00F2EA"></path>
            <path d="M20.780511,5.9235 C19.7556447,4.73494068 19.1326671,3.18409322 19.1326671,1.48807627 L17.842645,1.48807627 C18.1823365,3.34070339 19.2714143,4.93019492 20.780511,5.9235" id="icon-vi-tiktok2_Fill-9" fill="#FF004F"></path>
            <path d="M8.86441344,15.5001102 C6.63237051,15.5001102 4.81606573,17.3336695 4.81606573,19.5877373 C4.81606573,21.1568898 5.69790399,22.5208729 6.98641523,23.2055339 C6.50621376,22.5335847 6.2199059,21.7116356 6.2199059,20.8215508 C6.2199059,18.5677373 8.03595888,16.7339237 10.2682536,16.7339237 C10.684999,16.7339237 11.0846213,16.8033305 11.4628398,16.9230763 L11.4628398,11.958839 C11.0715272,11.9051949 10.6739194,11.8716356 10.2682536,11.8716356 C10.1979987,11.8716356 10.1287509,11.8751949 10.0589996,11.8769746 L10.0589996,15.6890085 C9.68078113,15.5695169 9.28115882,15.5001102 8.86441344,15.5001102" id="icon-vi-tiktok2_Fill-11" fill="#FF004F"></path>
            <path d="M24.4292868,8.10228814 L24.4292868,11.8815254 C21.932088,11.8815254 19.6179551,11.0748305 17.7288772,9.70601695 L17.7288772,19.5877119 C17.7288772,24.5227119 13.7522953,28.5376271 8.86441344,28.5376271 C6.9755874,28.5376271 5.22399776,27.9361017 3.78440058,26.9155932 C5.40379003,28.6708475 7.71036868,29.7714407 10.2682536,29.7714407 C15.1561355,29.7714407 19.1327174,25.7565254 19.1327174,20.8215254 L19.1327174,10.9398305 C21.0215435,12.3086441 23.3359282,13.115339 25.833127,13.115339 L25.833127,8.25279661 C25.3516664,8.25279661 24.8822928,8.20016949 24.4292868,8.10228814" id="icon-vi-tiktok2_Fill-13" fill="#FF004F"></path>
            <path d="M17.7289024,19.5876356 L17.7289024,9.70594068 C19.6177285,11.0750085 21.9318614,11.8814492 24.429312,11.8814492 L24.429312,8.10221186 C22.9866931,7.79051695 21.7160603,7.00848305 20.7805866,5.92339831 C19.2714899,4.93009322 18.182412,3.34085593 17.8427205,1.48797458 L14.3166265,1.48797458 L14.3088204,20.9752627 C14.2279894,23.1576356 12.4489525,24.9090763 10.2682788,24.9090763 C8.91757051,24.9090763 7.72248074,24.2350932 6.98644041,23.2054322 C5.69792917,22.5207712 4.81609091,21.1570424 4.81609091,19.5876356 C4.81609091,17.333822 6.63239569,15.5000085 8.86443862,15.5000085 C9.281184,15.5000085 9.68080631,15.5694153 10.0590248,15.689161 L10.0590248,11.8768729 C5.26758605,11.9897542 1.40381499,15.9573814 1.40381499,20.8217034 C1.40381499,23.174161 2.30907157,25.3163644 3.78442576,26.9155169 C5.22402294,27.9360254 6.97561258,28.5375508 8.86443862,28.5375508 C13.7523205,28.5375508 17.7289024,24.5226356 17.7289024,19.5876356" id="icon-vi-tiktok2_Fill-15" fill="#000000"></path>
            <path d="M31.02099,8.89738983 L31.4609019,8.89738983 L42.5951801,8.89738983 L41.5325423,12.2406102 L38.5299611,12.2395932 L38.5362564,23.899678 L38.5357528,24.5980678 L34.7883179,24.5980678 C34.7883179,24.5980678 34.7885697,24.4879831 34.7885697,24.3580678 L34.7883179,12.2395932 L31.4624128,12.2395932 L31.0237599,12.2464576 L31.02099,8.89738983 Z" id="icon-vi-tiktok2_Fill-17" fill="#464D62"></path>
            <path d="M61.5553826,8.89738983 L61.9952945,8.89738983 L73.3972466,8.89738983 L72.3346088,12.2406102 L69.0643537,12.2395932 L69.0709007,23.899678 L69.0701453,24.6059492 L65.3227104,24.6059492 C65.3227104,24.6059492 65.3232141,24.4879831 65.3229622,24.3580678 L65.3227104,12.2395932 L61.9970571,12.2395932 L61.5581525,12.2464576 L61.5553826,8.89738983 Z" id="icon-vi-tiktok2_Fill-19" fill="#464D62"></path>
            <polygon id="icon-vi-tiktok2_Fill-21" fill="#464D62" points="43.3011292 14.2332712 43.3011292 13.8920847 47.0120516 13.8920847 47.0135625 14.2332712 47.0191023 23.6128475 47.0080226 24.5982712 43.3232884 24.5982712 43.3232884 24.0638644"></polygon>
            <polygon id="icon-vi-tiktok2_Fill-23" fill="#464D62" points="48.4835279 9.59369492 48.4835279 8.85310169 49.2235972 8.85310169 51.5344566 8.85310169 52.1534054 8.85310169 52.1534054 9.49632203 52.1571825 16.1662373 55.8638242 12.5265763 60.2886277 12.5270847 55.6419797 17.0794576 60.8466384 24.5982712 56.7625337 24.5982712 53.289068 19.3848814 52.1884069 20.4631017 52.1904214 24.6058983 48.4978811 24.5982712 48.4978811 24.2631864"></polygon>
            <g id="icon-vi-tiktok2_Group-27" transform="translate(87.629844, 8.669746)">

              <g id="icon-vi-tiktok2_Clip-26"></g>
              <polygon id="icon-vi-tiktok2_Fill-25" fill="#464D62" mask="url(#icon-vi-tiktok2_mask-6)" points="0.12950583 0.923949153 0.12950583 0.183355932 0.869323307 0.183355932 3.18018273 0.183355932 3.79913146 0.183355932 3.79913146 0.826576271 3.80316042 7.49649153 7.5098021 3.85683051 11.9346056 3.85733898 7.28795758 8.40971186 12.4926163 15.9285254 8.40851162 15.9285254 4.9350459 10.7151356 3.83438484 11.7933559 3.83639932 15.9361525 0.143858994 15.9285254 0.143858994 15.5934407"></polygon>
            </g>
            <path d="M86.053489,15.6644746 C85.7210999,14.8882881 85.2696048,14.2125254 84.6987518,13.6376949 C84.1281505,13.0628644 83.457329,12.6115932 82.6872943,12.2833729 C81.916756,11.9554068 81.0933377,11.7914237 80.2165356,11.7914237 C80.1903474,11.7914237 80.1644109,11.7926949 80.1382227,11.7929492 L80.1382227,11.7919322 L79.3296611,11.7919322 L79.3916064,11.7947288 C79.4996328,11.7980339 79.6069038,11.8028644 79.7134194,11.8104915 C79.8566992,11.820661 79.9979646,11.836678 80.1382227,11.856 C80.2036933,11.8648983 80.2684084,11.8748136 80.3328718,11.8857458 C80.339167,11.8867627 80.3452104,11.8880339 80.3512539,11.8887966 C80.5350751,11.9205763 80.7163782,11.9602373 80.8949115,12.0077797 C80.91002,12.0118475 80.9258841,12.015661 80.9409927,12.0199831 C80.9820377,12.0311695 81.0228309,12.0433729 81.0636241,12.0555763 C81.0991293,12.066 81.1346345,12.076678 81.1698879,12.0881186 C81.204134,12.0990508 81.2381283,12.1102373 81.2721227,12.1214237 C81.3169448,12.136678 81.3615152,12.1526949 81.4060855,12.1687119 C81.4322738,12.1783729 81.4589656,12.1877797 81.4851538,12.1976949 C81.5569197,12.2251525 81.6281819,12.2533729 81.6989405,12.2833729 C82.4692269,12.6115932 83.1400485,13.0628644 83.7106497,13.6376949 C84.2812509,14.2125254 84.7327461,14.8882881 85.0651352,15.6644746 C85.3975242,16.440661 85.5639706,17.2804068 85.5644742,18.1832034 C85.5649778,18.780661 85.4894348,19.3539661 85.3380971,19.9028644 C85.1870111,20.4520169 84.9744836,20.9632881 84.7007662,21.4374407 C84.4270489,21.9118475 84.098437,22.3422712 83.7154341,22.7287119 C83.3319276,23.1151525 82.9051099,23.4464237 82.4349808,23.7222712 C81.9645999,23.9986271 81.4602247,24.2111695 80.9221069,24.360661 C80.8382542,24.3837966 80.7536461,24.4043898 80.6685344,24.4239661 C80.6363027,24.431339 80.6038192,24.4382034 80.5715875,24.445322 C80.5199665,24.4562542 80.4680937,24.4661695 80.4162208,24.4758305 C80.3759313,24.4834576 80.3356417,24.4910847 80.2948485,24.4979492 C80.2220754,24.5098983 80.1490505,24.5205763 80.0752702,24.5299831 C79.9599413,24.5447288 79.8441088,24.5574407 79.7267653,24.5660847 C79.6031267,24.5752373 79.4784808,24.5800678 79.3525758,24.5823559 L79.3477914,24.5836271 L80.1069983,24.5836271 L80.1064947,24.5823559 C80.1452734,24.5831186 80.1840521,24.5846441 80.2235863,24.5846441 C80.8100515,24.5846441 81.3720912,24.5098983 81.9104608,24.360661 C82.4485785,24.2111695 82.9529537,23.9983729 83.4233346,23.7222712 C83.8934637,23.4461695 84.3202815,23.1151525 84.703788,22.7284576 C85.0867908,22.3422712 85.4154027,21.9118475 85.6891201,21.4376949 C85.9628374,20.9635424 86.1751132,20.4517627 86.3264509,19.9028644 C86.4775369,19.3539661 86.5530798,18.7809153 86.5525762,18.1832034 C86.5520726,17.2801525 86.3856263,16.440661 86.053489,15.6644746" id="icon-vi-tiktok2_Fill-28" fill="#FF004F"></path>
            <path d="M78.4487798,24.5381949 C78.4175553,24.5346356 78.3865827,24.5298051 78.3553583,24.5254831 C78.2941685,24.5173475 78.2329787,24.5089576 78.1720407,24.4990424 C78.1360319,24.4931949 78.0997712,24.486839 78.0640142,24.4802288 C78.0043353,24.4695508 77.9449081,24.4581102 77.8859846,24.4456525 C77.8552638,24.4392966 77.824543,24.4329407 77.7938222,24.4260763 C77.7049333,24.4059915 77.6162962,24.3846356 77.5289182,24.3604831 C76.9840016,24.2112458 76.4763528,23.9984492 76.0057201,23.7223475 C75.5350874,23.4465 75.107766,23.1149746 74.7240078,22.7285339 C74.3405013,22.3420932 74.0113857,21.9116695 73.7374166,21.4375169 C73.4629438,20.9633644 73.2499126,20.451839 73.0983231,19.9029407 C72.9464817,19.3540424 72.8706869,18.7807373 72.8704351,18.1830254 C72.8699315,17.5855678 72.9454745,17.0107373 73.0965604,16.4585339 C73.2476463,15.9065847 73.4599221,15.3950593 73.7336394,14.9239576 C74.0073568,14.4531102 74.3359687,14.0242119 74.7192234,13.6377712 C75.102478,13.2513305 75.5292958,12.9215847 75.9996767,12.6487881 C76.4700576,12.3759915 76.9774545,12.1649746 77.5221193,12.0154831 C77.6042094,11.9928559 77.6870548,11.9730254 77.7701521,11.9539576 C77.8061609,11.945822 77.8426733,11.9379407 77.878934,11.9303136 C77.9189717,11.9219237 77.9590095,11.9145508 77.9992991,11.9069237 C78.2380149,11.8616695 78.4810114,11.8283644 78.7287924,11.8103136 C78.8436177,11.8016695 78.959702,11.7970932 79.0765418,11.7942966 L79.1201049,11.7920085 L78.3299255,11.7920085 L78.3299255,11.7930254 C78.30273,11.7927712 78.2757864,11.7912458 78.2480873,11.7912458 C77.655075,11.7912458 77.0864882,11.8659915 76.5418234,12.0154831 C75.9974104,12.1649746 75.4897617,12.3759915 75.0196326,12.6487881 C74.5492517,12.9215847 74.1221821,13.2513305 73.7389274,13.6377712 C73.3556728,14.0242119 73.0273127,14.4531102 72.7535953,14.9239576 C72.479878,15.3950593 72.2673504,15.9063305 72.1162645,16.4585339 C71.9649267,17.0107373 71.8896356,17.5855678 71.8898874,18.1830254 C71.890391,18.7807373 71.9664376,19.3540424 72.1180271,19.9029407 C72.2698685,20.451839 72.4826479,20.9633644 72.7568688,21.4375169 C73.0310898,21.9116695 73.3602054,22.3420932 73.7437118,22.7285339 C74.1274701,23.1149746 74.5545397,23.4462458 75.0254242,23.7223475 C75.4958051,23.9984492 76.0037057,24.2112458 76.5483705,24.3604831 C77.0930353,24.5097203 77.6618738,24.5847203 78.2548861,24.5847203 C78.2891323,24.5847203 78.3231266,24.5844661 78.3571209,24.5839576 C78.3571209,24.5839576 78.3661861,24.5834492 78.3704669,24.5834492 L78.3702151,24.5837034 L79.1185941,24.5837034 L79.1155724,24.5824322 C78.990171,24.5801441 78.8655251,24.5753136 78.7421383,24.5664153 C78.6436806,24.5592966 78.5459784,24.5496356 78.4487798,24.5381949" id="icon-vi-tiktok2_Fill-30" fill="#00F2EA"></path>
            <path d="M79.2622516,21.293796 C79.2766459,21.2940479 79.2905352,21.2948035 79.3049295,21.2948035 C79.3314453,21.2948035 79.3572036,21.2930404 79.3834669,21.2922848 C79.3705878,21.2920329 79.3574561,21.2915292 79.344577,21.2910254 C79.3173035,21.2920329 79.2897776,21.2935441 79.2622516,21.293796" id="icon-vi-tiktok2_Fill-32" fill="#000000"></path>
            <path d="M79.3924486,15.0832438 C79.3621448,15.0824882 79.3320935,15.0812288 79.3017897,15.0812288 C79.2894157,15.0812288 79.2775467,15.0819844 79.2651726,15.0822363 C79.2969916,15.0824882 79.3285581,15.0829919 79.359872,15.0842513 C79.3707309,15.0839994 79.3815898,15.0834956 79.3924486,15.0832438" id="icon-vi-tiktok2_Fill-34" fill="#000000"></path>
            <path d="M81.1699886,12.0880169 C81.2043329,12.0985955 81.2384247,12.1099297 81.2722639,12.1212638 C81.2384247,12.1099297 81.2043329,12.0988474 81.1699886,12.0880169" id="icon-vi-tiktok2_Fill-36" fill="#000000"></path>
            <path d="M81.4060604,12.1687119 C81.4323237,12.1782829 81.459092,12.1876021 81.4853553,12.1974251 C81.459092,12.1876021 81.4323237,12.1782829 81.4060604,12.1687119" id="icon-vi-tiktok2_Fill-38" fill="#000000"></path>
            <path d="M80.3513798,11.8888983 C80.534834,11.9203821 80.7157716,11.9596739 80.8944444,12.0067736 C80.7160233,11.959422 80.534834,11.9203821 80.3513798,11.8888983" id="icon-vi-tiktok2_Fill-40" fill="#000000"></path>
            <path d="M80.9410682,12.0198559 C80.9822309,12.0309382 81.023141,12.0432799 81.0637986,12.0551178 C81.023141,12.043028 80.9822309,12.0309382 80.9410682,12.0198559" id="icon-vi-tiktok2_Fill-42" fill="#000000"></path>
            <path d="M80.4166443,24.4758814 C80.3762392,24.4831856 80.3358342,24.4909936 80.294924,24.4975422 C80.3358342,24.4909936 80.3762392,24.4831856 80.4166443,24.4758814" id="icon-vi-tiktok2_Fill-44" fill="#000000"></path>
            <path d="M80.1381723,11.8558729 C80.2038306,11.8646883 80.2687313,11.8747632 80.3333794,11.8855936 C80.2689838,11.8747632 80.2038306,11.8646883 80.1381723,11.8558729" id="icon-vi-tiktok2_Fill-46" fill="#000000"></path>
            <path d="M80.6688626,24.4239915 C80.6365386,24.4312958 80.603962,24.4383481 80.5716379,24.4448968 C80.603962,24.4380963 80.6365386,24.4312958 80.6688626,24.4239915" id="icon-vi-tiktok2_Fill-48" fill="#000000"></path>
            <path d="M77.7939229,24.4261017 C77.8244793,24.4329022 77.8552882,24.439199 77.886097,24.4454957 C77.8552882,24.439199 77.8244793,24.4329022 77.7939229,24.4261017" id="icon-vi-tiktok2_Fill-50" fill="#000000"></path>
            <path d="M78.3553331,24.5255339 C78.386647,24.5298157 78.4177084,24.5346012 78.4490224,24.5381274 C78.4177084,24.5346012 78.386647,24.5298157 78.3553331,24.5255339" id="icon-vi-tiktok2_Fill-52" fill="#000000"></path>
            <path d="M77.8793221,11.9303644 C77.842705,11.9379205 77.8063404,11.9457285 77.7699758,11.9537884 C77.8063404,11.9457285 77.842705,11.9379205 77.8793221,11.9303644" id="icon-vi-tiktok2_Fill-54" fill="#000000"></path>
            <path d="M78.0639387,24.4803559 C78.1000507,24.4866527 78.1361628,24.4932013 78.1725273,24.4989943 C78.1361628,24.4932013 78.1003033,24.4866527 78.0639387,24.4803559" id="icon-vi-tiktok2_Fill-56" fill="#000000"></path>
            <path d="M82.1902719,19.0209407 C82.1167434,19.2876356 82.0137532,19.5360254 81.8807976,19.7663644 C81.7475901,19.9967034 81.5881945,20.2056864 81.4021069,20.3933136 C81.2160194,20.5811949 81.0087799,20.7421271 80.7801365,20.8761102 C80.5517449,21.0100932 80.3069857,21.1135678 80.0453552,21.1860254 C79.8207408,21.2485678 79.5865576,21.2823814 79.3443165,21.2910254 C79.3571588,21.2915339 79.3702529,21.2920424 79.383347,21.2922966 C79.356907,21.2930593 79.3312224,21.294839 79.3047823,21.294839 C79.2904291,21.294839 79.2765796,21.2940763 79.2622264,21.293822 C79.2501396,21.293822 79.2383045,21.294839 79.2262176,21.294839 C79.0527206,21.294839 78.884008,21.2800932 78.7193243,21.2539068 C78.6102906,21.2363644 78.502516,21.2150085 78.3972594,21.1860254 C78.1326072,21.1135678 77.8858335,21.0100932 77.657442,20.8761102 C77.4287986,20.7421271 77.2213072,20.5811949 77.0349679,20.3933136 C76.8486286,20.2056864 76.6887293,19.9967034 76.5557737,19.7663644 C76.4225662,19.5360254 76.3190724,19.2876356 76.2455439,19.0209407 C76.1717636,18.7542458 76.1347475,18.4758559 76.1344957,18.1855169 C76.1342439,17.8954322 76.1710081,17.6162797 76.2445366,17.3480593 C76.3178133,17.079839 76.4210554,16.8314492 76.554011,16.6026356 C76.6869666,16.373822 76.8463623,16.1656017 77.0327016,15.9779746 C77.2187891,15.7900932 77.4260287,15.630178 77.6544202,15.4977203 C77.8830636,15.3650085 78.1293337,15.2625508 78.3939859,15.1900932 C78.5022642,15.1600932 78.6133123,15.1382288 78.7256196,15.1206864 C78.8875333,15.0952627 79.0527206,15.0810254 79.2229441,15.0810254 C79.2370455,15.0810254 79.250895,15.0817881 79.2652482,15.0820424 C79.2775868,15.0817881 79.2891701,15.0810254 79.3015088,15.0810254 C79.331726,15.0810254 79.3619432,15.0825508 79.3921603,15.0833136 C79.3813325,15.0835678 79.3705047,15.0840763 79.3596769,15.0843305 C79.73437,15.0995847 80.0889183,15.1781441 80.4225664,15.3200085 C80.7970078,15.4794153 81.122598,15.698822 81.3995888,15.9779746 C81.6770834,16.2571271 81.896158,16.5853475 82.0578199,16.9623814 C82.2189783,17.3394153 82.300061,17.7472119 82.3003128,18.1855169 C82.3003128,18.4758559 82.2635486,18.7542458 82.1902719,19.0209407 M85.0651855,15.6645 C84.7327965,14.8883136 84.2813013,14.2125508 83.7107001,13.6377203 C83.139847,13.0628898 82.4690255,12.6116186 81.6989908,12.2833983 C81.6282322,12.2533983 81.5567182,12.225178 81.4852042,12.1977203 C81.459016,12.1878051 81.4323241,12.1783983 81.4061359,12.1687373 C81.3615656,12.1524661 81.3169952,12.1367034 81.272173,12.1214492 C81.2381787,12.1100085 81.2041844,12.098822 81.1699382,12.0878898 C81.1346848,12.0767034 81.0991796,12.0660254 81.0634226,12.0556017 C81.0228812,12.0433983 80.982088,12.0309407 80.941043,12.0197542 C80.9259344,12.0156864 80.9100704,12.0118729 80.89471,12.0078051 C80.7161768,11.9602627 80.5351255,11.9206017 80.3513042,11.888822 C80.3452608,11.8878051 80.3389656,11.8867881 80.3329221,11.8857712 C80.268207,11.874839 80.2034918,11.8649237 80.1382731,11.8557712 C79.998015,11.8367034 79.8564978,11.8206864 79.7134698,11.8105169 C79.6069542,11.8028898 79.4994314,11.7980593 79.3916567,11.7947542 C79.3372658,11.7932288 79.2831267,11.7911949 79.2284839,11.7911949 C79.1773665,11.7911949 79.1270045,11.7929746 79.0766425,11.7942458 C78.9598028,11.7970424 78.8437184,11.8016186 78.7288931,11.8102627 C78.4811121,11.8283136 78.2381156,11.8616186 77.999148,11.9068729 C77.9588584,11.9145 77.9188206,11.9221271 77.8790347,11.9302627 C77.8425222,11.9378898 77.8062616,11.9457712 77.770001,11.954161 C77.6869037,11.9729746 77.6040583,11.9928051 77.5222201,12.0154322 C76.9775552,12.1649237 76.4699065,12.3759407 75.9997774,12.6487373 C75.5293965,12.9215339 75.1025788,13.2512797 74.7193241,13.6377203 C74.3360694,14.0244153 74.0074575,14.4530593 73.7337402,14.9239068 C73.4600228,15.3950085 73.2474952,15.9065339 73.0966611,16.4584831 C72.9453234,17.0106864 72.8697804,17.5855169 72.870284,18.1832288 C72.8705358,18.7806864 72.9465824,19.3539915 73.0984238,19.9028898 C73.2500133,20.4517881 73.4630445,20.9633136 73.7375173,21.4374661 C74.0114865,21.9118729 74.3403502,22.3420424 74.7241085,22.7287373 C75.1078668,23.115178 75.5349363,23.4464492 76.005569,23.7222966 C76.4764536,23.9986525 76.9838505,24.2111949 77.5287671,24.3604322 C77.616397,24.3845847 77.705034,24.4059407 77.7939229,24.4260254 C77.8243919,24.4331441 77.8551127,24.4392458 77.8858335,24.4456017 C77.9450089,24.4580593 78.004436,24.4697542 78.0638631,24.4804322 C78.1001238,24.4867881 78.1358808,24.4931441 78.1721414,24.4989915 C78.2328276,24.5089068 78.2940174,24.5175508 78.355459,24.5254322 C78.3866834,24.5297542 78.417656,24.5345847 78.4488805,24.5381441 C78.5458273,24.5495847 78.6437813,24.5592458 78.742239,24.5663644 C78.8656259,24.5752627 78.9902718,24.5800932 79.1156731,24.5823814 C79.155459,24.5831441 79.1949932,24.5846695 79.2352828,24.5846695 C79.2745651,24.5846695 79.3133439,24.5831441 79.3523744,24.5823814 C79.4782793,24.5800932 79.603177,24.5752627 79.7268157,24.5661102 C79.8441591,24.5574661 79.9599917,24.5447542 80.0753206,24.5300085 C80.1491009,24.5206017 80.2221258,24.5096695 80.2948988,24.4977203 C80.335692,24.4911102 80.3759816,24.4832288 80.4162712,24.4758559 C80.468144,24.4661949 80.5200169,24.4560254 80.5716379,24.4450932 C80.6038696,24.4384831 80.636353,24.4313644 80.6685847,24.4239915 C80.7536965,24.4044153 80.8383046,24.383822 80.9221573,24.3604322 C81.460275,24.2111949 81.9646503,23.9986525 82.4350311,23.7222966 C82.9051602,23.4464492 83.331978,23.115178 83.7154845,22.7287373 C84.0984873,22.3420424 84.4270992,21.9118729 84.7008166,21.4374661 C84.974534,20.9633136 85.1868097,20.4517881 85.3381474,19.9028898 C85.4894852,19.3539915 85.5647764,18.7806864 85.5642727,18.1832288 C85.5637691,17.2804322 85.3973228,16.4406864 85.0651855,15.6645" id="icon-vi-tiktok2_Fill-58" fill="#464D62"></path>
            <path d="M47.0259011,10.7812119 C47.0259011,11.8215508 46.1906477,12.6651102 45.1599898,12.6651102 C44.1295837,12.6651102 43.2943303,11.8215508 43.2943303,10.7812119 C43.2943303,9.74087288 44.1295837,8.89731356 45.1599898,8.89731356 C46.1906477,8.89731356 47.0259011,9.74087288 47.0259011,10.7812119" id="icon-vi-tiktok2_Fill-60" fill="#464D62"></path>
          </g>
          <g id="icon-vi-tiktok2_Group-Copy" transform="translate(105.169492, 8.750000)" fill="#464D62">
            <g id="icon-vi-tiktok2_Group-4">
              <path d="M9.90340312,0.082730117 L17.0181103,15.852356 L14.5810045,15.852356 L12.204174,10.646106 L5.6836655,10.646106 L3.32786889,15.852356 L0.87523958,15.852356 L7.99504738,0.082730117 L9.90340312,0.082730117 Z M8.96495364,3.35735596 L6.37778415,9.09485596 L11.5310892,9.09485596 L8.96495364,3.35735596 Z" id="icon-vi-tiktok2_Combined-Shape"></path>
              <rect id="icon-vi-tiktok2_Rectangle-2" x="5.35702143" y="8.83273012" width="7.42372881" height="2.25"></rect>
            </g>
            <path d="M37.7684923,7.00512954 C37.5499867,6.57834527 37.2180205,6.2282266 36.7671168,5.95191775 C36.3181378,5.6767883 35.8057479,5.53899544 35.2238987,5.53899544 C34.9526515,5.53899544 34.681204,5.56946614 34.4091806,5.63053685 C34.1494528,5.68884714 33.9215631,5.78237849 33.7238871,5.91076145 C33.5337528,6.03424646 33.3825507,6.19039656 33.2676785,6.38154175 C33.1586825,6.56290898 33.1032256,6.78042427 33.1032256,7.04000192 C33.1032256,7.48185882 33.2726792,7.80205607 33.6271372,8.03415776 C34.0300333,8.297977 34.6901587,8.52943315 35.6009482,8.71980897 C36.9955085,9.00837639 38.0353144,9.43285967 38.7215375,10.0032744 C39.4346589,10.5960481 39.7944225,11.4011805 39.7944225,12.3936787 C39.7944225,13.1004248 39.6567897,13.7059511 39.3776446,14.2062968 C39.1036803,14.6973564 38.7439368,15.1011781 38.3002186,15.4149719 C37.862069,15.7248278 37.3676572,15.9458416 36.8189548,16.0778273 C36.2836571,16.2065885 35.7436825,16.2710203 35.1994782,16.2710203 C34.2951162,16.2710203 33.4159998,16.0813187 32.5645814,15.7028457 C31.6990766,15.3181111 30.9882049,14.713793 30.4362413,13.8947673 L30.2756419,13.6564636 L32.0904683,12.2983362 L32.2572007,12.5884365 C32.5241389,13.0528867 32.9193223,13.4445974 33.447464,13.764738 C33.9707731,14.0819494 34.5447023,14.2400837 35.1750578,14.2400837 C35.5140291,14.2400837 35.8364255,14.2090638 36.1424792,14.1472242 C36.4311799,14.0888908 36.679863,13.9883956 36.8907129,13.8463848 C37.0971954,13.7073156 37.2610336,13.5314489 37.3847226,13.3162405 C37.5030389,13.1103799 37.5643556,12.845386 37.5643556,12.5170353 C37.5643556,12.0231623 37.339265,11.6676447 36.8571478,11.4138192 C36.3043175,11.1227646 35.4914162,10.8463429 34.4225063,10.5884582 C34.0731214,10.5044167 33.7037523,10.3995953 33.3142924,10.2740226 C32.9016071,10.1409614 32.5191548,9.94554997 32.1679888,9.6883389 C31.8091347,9.42549669 31.512937,9.09451828 31.2807628,8.69757132 C31.0400638,8.28604963 30.9219995,7.78141485 30.9219995,7.18802985 C30.9219995,6.54791604 31.0470994,5.99272409 31.3005354,5.52636593 C31.5502306,5.06689131 31.8861031,4.6868493 32.3059646,4.38902416 C32.7176977,4.09696491 33.1851068,3.88071863 33.7065808,3.74023021 C34.2201449,3.60187274 34.7505509,3.53273012 35.2971599,3.53273012 C36.1397058,3.53273012 36.9567274,3.72387902 37.7452208,4.10485892 C38.5469881,4.49225243 39.1542769,5.04353857 39.559537,5.75557979 L39.6905614,5.98578934 L37.9297014,7.3200026 L37.7684923,7.00512954 Z" id="icon-vi-tiktok2_Path" fill-rule="nonzero"></path>
            <path d="M26.655671,5.17932983 L26.655671,0.129182121 L28.8827897,0.129182121 L28.8827897,9.72204236 C28.8843871,9.77957471 28.8851911,9.83730755 28.8851911,9.89523012 C28.8851911,9.95315268 28.8843871,10.0108855 28.8827897,10.0684179 L28.8827897,15.8886994 L26.655671,15.8886994 L26.655671,14.6111304 C25.6251565,15.4533092 24.3130579,15.9577301 22.8843437,15.9577301 C19.5701671,15.9577301 16.8834962,13.2434564 16.8834962,9.89523012 C16.8834962,6.54700382 19.5701671,3.83273012 22.8843437,3.83273012 C24.3130579,3.83273012 25.6251565,4.33715107 26.655671,5.17932983 Z M26.655671,9.75793378 C26.5841265,7.715942 24.923024,6.08273012 22.8843437,6.08273012 C20.8001708,6.08273012 19.1106149,7.78964451 19.1106149,9.89523012 C19.1106149,12.0008157 20.8001708,13.7077301 22.8843437,13.7077301 C24.923024,13.7077301 26.5841265,12.0745182 26.655671,10.0325265 L26.655671,9.75793378 Z" id="icon-vi-tiktok2_Combined-Shape" fill-rule="nonzero"></path>
          </g>
        </g>
      </g>
    </g>
  </g>
</svg>
