<?xml version="1.0" encoding="UTF-8"?>
<svg width="320px" height="170px" viewBox="0 0 320 170" version="1.1" xmlns="http://www.w3.org/2000/svg" xmlns:xlink="http://www.w3.org/1999/xlink" style="background: #FFFFFF;">
    <!-- Generator: Sketch 52.5 (67469) - http://www.bohemiancoding.com/sketch -->
    <title>btn-primary</title>
    <desc>Created with Sketch.</desc>
    <defs>
        <rect id="path-1" x="0" y="0" width="12" height="12"></rect>
        <path d="M4.88631312,7.95964105 L3.3827123,6.52540513 C3.2072123,6.35090513 3.2072123,6.06440513 3.3827123,5.88940513 C3.5572123,5.71440513 3.8437123,5.71440513 4.0187123,5.88940513 L5.25382978,7.06716522 L8.1896,4.131395 C8.3641,3.956395 8.6511,3.956395 8.8256,4.131395 C9.0011,4.306395 9.0011,4.592395 8.8256,4.767895 L5.5731,8.019895 C5.3981,8.195395 5.1121,8.195395 4.9371,8.019895 C4.91811795,8.0010211 4.90118899,7.98084282 4.88631312,7.95964105 Z M6,0 C9.3135,0 12,2.6865 12,6 C12,9.3135 9.3135,12 6,12 C2.6865,12 0,9.3135 0,6 C0,2.6865 2.6865,0 6,0 Z M6,0.9 C3.188,0.9 0.9,3.188 0.9,6 C0.9,8.812 3.188,11.1 6,11.1 C8.812,11.1 11.1,8.812 11.1,6 C11.1,3.188 8.812,0.9 6,0.9 Z" id="path-3"></path>
    </defs>
    <g id="Page-1" stroke="none" stroke-width="1" fill="none" fill-rule="evenodd">
        <g id="Group-2" transform="translate(40.000000, 40.000000)">
            <g id="1.button/dark">
                <g id="button/dark-s">
                    <rect id="Rectangle-2-Copy-6" fill="#2F88FF" x="0" y="0" width="100" height="34" rx="2"></rect>
                    <text id="按钮" font-family="PingFangSC-Regular, PingFang SC" font-size="14" font-weight="normal" line-spacing="22" fill="#FFFFFF">
                        <tspan x="36" y="21">按钮</tspan>
                    </text>
                </g>
            </g>
            <g id="1.button/dark" transform="translate(0.000000, 54.000000)">
                <g id="button/dark-s">
                    <rect id="Rectangle-2-Copy-6" fill="#2F88FF" x="0" y="0" width="220" height="34" rx="2"></rect>
                    <text id="按钮" font-family="PingFangSC-Regular, PingFang SC" font-size="14" font-weight="normal" line-spacing="22" fill="#FFFFFF">
                        <tspan x="61" y="21">保存并提交审核</tspan>
                    </text>
                </g>
            </g>
            <g id="1.button/dark+icon/normal" transform="translate(120.000000, 0.000000)">
                <g id="button/dark+icon/normal">
                    <rect id="Rectangle-2-Copy-6" fill="#2F88FF" x="0" y="0" width="100" height="34" rx="2"></rect>
                    <g id="Group" transform="translate(26.000000, 6.000000)">
                        <g id="2.icon/success" transform="translate(0.000000, 5.000000)">
                            <mask id="mask-2" fill="white">
                                <use xlink:href="#path-1"></use>
                            </mask>
                            <g id="Mask"></g>
                            <mask id="mask-4" fill="white">
                                <use xlink:href="#path-3"></use>
                            </mask>
                            <use id="成功" fill="#FFFFFF" fill-rule="evenodd" xlink:href="#path-3"></use>
                        </g>
                        <text id="按钮" font-family="PingFangSC-Regular, PingFang SC" font-size="14" font-weight="normal" line-spacing="22" fill="#FFFFFF">
                            <tspan x="20" y="15">图标</tspan>
                        </text>
                    </g>
                </g>
            </g>
        </g>
    </g>
</svg>